<?xml version="1.0" standalone="no"?>
<!DOCTYPE svg PUBLIC "-//W3C//DTD SVG 20010904//EN"
 "http://www.w3.org/TR/2001/REC-SVG-20010904/DTD/svg10.dtd">
<svg version="1.0" xmlns="http://www.w3.org/2000/svg"
 width="275px" height="200px" viewBox="0 0 569.000000 226.000000"
 preserveAspectRatio="xMidYMid meet">

<g transform="translate(0.000000,226.000000) scale(0.100000,-0.100000)"
fill=" #fefeff" stroke="none">
<path d="M835 1516 c-76 -34 -115 -100 -115 -196 0 -33 -3 -60 -7 -60 -5 0
-23 9 -41 20 -47 29 -177 71 -196 64 -20 -8 -20 -25 2 -154 13 -74 15 -114 9
-137 -11 -36 -4 -75 17 -96 8 -7 20 -44 28 -81 13 -68 13 -68 59 -86 25 -9 67
-31 93 -49 l47 -33 83 12 c45 6 118 10 162 8 75 -3 79 -2 82 19 2 16 17 29 47
42 65 29 79 57 72 141 -3 38 -15 91 -27 117 -16 37 -20 59 -15 96 7 46 6 48
-23 59 l-30 12 14 39 c26 75 12 170 -34 220 -47 52 -158 73 -227 43z m5 -167
c19 -5 59 -9 88 -9 l52 0 0 -44 c0 -45 15 -61 45 -50 11 5 13 2 9 -10 -6 -14
-21 -16 -128 -10 -66 4 -123 9 -126 11 -2 2 -6 34 -8 70 -4 62 -3 66 14 58 11
-4 35 -11 54 -16z m-200 -113 l65 -33 3 -207 2 -207 -47 26 c-26 14 -53 25
-60 25 -12 0 -19 18 -25 66 -2 11 9 35 25 53 44 53 32 122 -27 146 -35 15 -36
17 -52 129 l-7 49 29 -7 c16 -3 58 -21 94 -40z m388 -72 c60 -8 58 -2 36 -123
l-16 -87 -41 -20 c-35 -16 -44 -26 -52 -58 -7 -30 -6 -44 7 -67 l17 -29 -48 0
c-26 0 -76 -3 -110 -6 l-61 -7 0 208 0 208 108 -6 c59 -4 131 -10 160 -13z
m101 -260 c0 -17 -5 -37 -13 -43 -11 -9 -15 -6 -20 14 -7 26 1 91 13 110 6 11
18 -35 20 -81z"/>
<path d="M2720 1110 l0 -250 40 0 40 0 0 48 c0 35 5 54 18 65 10 10 22 17 25
17 4 0 25 -29 48 -65 l41 -65 49 0 c38 0 48 3 43 13 -5 6 -32 49 -61 94 -29
46 -53 87 -53 92 0 5 28 40 62 77 l62 69 -49 3 -50 4 -60 -66 c-33 -36 -63
-66 -67 -66 -5 0 -8 63 -8 140 l0 140 -40 0 -40 0 0 -250z"/>
<path d="M4480 1274 c0 -78 -2 -85 -17 -79 -97 38 -204 -14 -234 -114 -48
-160 152 -288 278 -178 57 50 63 75 63 265 l0 169 -39 11 c-21 7 -41 12 -45
12 -3 0 -6 -39 -6 -86z m-21 -180 c28 -36 27 -91 -1 -121 -30 -32 -90 -32
-123 2 -56 55 -16 145 64 145 31 0 44 -6 60 -26z"/>
<path d="M1580 1105 l0 -248 118 5 c126 5 183 22 203 61 35 65 29 135 -16 177
l-24 23 19 25 c25 31 27 108 4 140 -29 42 -72 55 -191 60 l-113 5 0 -248z
m211 145 c23 -13 26 -62 3 -81 -8 -7 -40 -14 -70 -17 l-54 -4 0 56 0 56 51 0
c28 0 59 -5 70 -10z m17 -196 c13 -9 22 -25 22 -42 0 -47 -13 -56 -89 -60
l-71 -4 0 61 0 61 58 0 c36 0 66 -6 80 -16z"/>
<path d="M3220 1105 l0 -245 45 0 44 0 3 156 3 157 110 -156 110 -157 43 0 42
0 0 245 0 245 -50 0 -49 0 -3 -156 -3 -155 -109 155 c-109 155 -110 156 -148
156 l-38 0 0 -245z"/>
<path d="M4185 1209 c-53 -12 -113 -62 -136 -113 -14 -31 -19 -65 -19 -138 l0
-98 45 0 45 0 0 99 c0 112 13 140 75 162 33 12 35 16 35 56 0 24 -1 43 -2 42
-2 -1 -21 -5 -43 -10z"/>
<path d="M2050 1188 c-136 -69 -127 -259 15 -314 86 -32 173 3 216 88 42 83 6
183 -81 228 -51 26 -95 25 -150 -2z m137 -90 c31 -29 32 -92 1 -125 -51 -54
-148 -14 -148 62 0 75 92 114 147 63z"/>
<path d="M2422 1189 c-129 -64 -127 -246 4 -310 112 -54 244 30 244 154 0 55
-16 90 -57 129 -55 52 -121 61 -191 27z m129 -82 c44 -34 49 -83 13 -126 -53
-63 -154 -28 -154 54 0 50 36 85 87 85 21 0 45 -6 54 -13z"/>
<path d="M3775 1199 c-65 -19 -117 -92 -117 -165 0 -116 124 -203 227 -160 67
28 70 35 34 68 -22 21 -35 26 -42 19 -18 -18 -83 -13 -108 9 l-24 19 128 1
127 0 0 38 c0 43 -28 109 -56 134 -26 23 -88 48 -116 47 -13 0 -36 -5 -53 -10z
m110 -99 c18 -20 17 -20 -60 -20 -77 0 -78 0 -60 20 13 14 31 20 60 20 29 0
47 -6 60 -20z"/>
</g>
</svg>
